<svg width="800" height="500" viewBox="0 0 800 500" fill="none" xmlns="http://www.w3.org/2000/svg">
  <rect width="800" height="500" rx="12" fill="#18181b"/>
  <rect x="0.5" y="0.5" width="799" height="499" rx="11.5" stroke="white" stroke-opacity="0.06"/>

  <!-- Title bar -->
  <rect width="800" height="40" rx="12" fill="#0f0f10"/>
  <rect y="28" width="800" height="12" fill="#0f0f10"/>
  <line x1="0" y1="40" x2="800" y2="40" stroke="white" stroke-opacity="0.06"/>
  <circle cx="18" cy="20" r="5" fill="#ff5f57"/>
  <circle cx="36" cy="20" r="5" fill="#ffbd2e"/>
  <circle cx="54" cy="20" r="5" fill="#28c840"/>

  <!-- Sidebar -->
  <rect x="0" y="40" width="240" height="460" fill="#0f0f10"/>
  <line x1="240" y1="40" x2="240" y2="500" stroke="white" stroke-opacity="0.06"/>

  <!-- Quick switch overlay -->
  <rect x="160" y="80" width="480" height="340" rx="12" fill="#18181b" stroke="white" stroke-opacity="0.08"/>

  <!-- Quick switch header -->
  <rect x="180" y="100" width="440" height="36" rx="6" fill="#0f0f10" stroke="white" stroke-opacity="0.06"/>
  <text x="200" y="123" font-family="Inter, sans-serif" font-size="14" fill="#fafafa">Quick open...</text>
  <text x="580" y="123" font-family="JetBrains Mono, monospace" font-size="10" fill="#71717a">Cmd+P</text>

  <!-- Results -->
  <rect x="180" y="148" width="440" height="40" rx="6" fill="rgba(139,92,246,0.1)"/>
  <text x="200" y="172" font-family="Inter, sans-serif" font-size="13" fill="#8b5cf6" font-weight="500">project-notes.md</text>
  <text x="540" y="172" font-family="Inter, sans-serif" font-size="11" fill="#71717a">Work</text>

  <text x="200" y="212" font-family="Inter, sans-serif" font-size="13" fill="#a1a1aa">standup.md</text>
  <text x="540" y="212" font-family="Inter, sans-serif" font-size="11" fill="#71717a">Work</text>

  <text x="200" y="248" font-family="Inter, sans-serif" font-size="13" fill="#a1a1aa">journal-feb-2026.md</text>
  <text x="540" y="248" font-family="Inter, sans-serif" font-size="11" fill="#71717a">Personal</text>

  <text x="200" y="284" font-family="Inter, sans-serif" font-size="13" fill="#a1a1aa">architecture-decisions.md</text>
  <text x="540" y="284" font-family="Inter, sans-serif" font-size="11" fill="#71717a">Work</text>

  <text x="200" y="320" font-family="Inter, sans-serif" font-size="13" fill="#a1a1aa">book-notes.md</text>
  <text x="540" y="320" font-family="Inter, sans-serif" font-size="11" fill="#71717a">Personal</text>

  <!-- Keyboard hints -->
  <text x="200" y="400" font-family="JetBrains Mono, monospace" font-size="10" fill="#71717a">↑↓ navigate  ↵ open  esc close</text>

  <!-- Play button overlay -->
  <circle cx="400" cy="450" r="20" fill="#8b5cf6" opacity="0.1" stroke="#8b5cf6" stroke-opacity="0.3"/>
  <polygon points="395,440 395,460 410,450" fill="#8b5cf6" opacity="0.6"/>
  <text x="400" y="486" text-anchor="middle" font-family="JetBrains Mono, monospace" font-size="10" fill="#8b5cf6" opacity="0.5">Replace with screen recording</text>
</svg>